<svg id="OBJECTS" xmlns="http://www.w3.org/2000/svg" xmlns:xlink="http://www.w3.org/1999/xlink" viewBox="0 0 124 72.3"><defs><pattern id="New_Pattern_Swatch_2" data-name="New Pattern Swatch 2" width="64.67" height="64.67" patternUnits="userSpaceOnUse" viewBox="0 0 64.67 64.67"><rect width="64.67" height="64.67" style="fill:none"/><rect width="64.67" height="64.67" style="fill:#314866"/></pattern></defs><title>logo</title><path d="M176.77,231h-2.29l-4.87-11.76h2.48l3.53,9.11,3.55-9.11h2.48Z" transform="translate(-169.61 -158.89)" style="fill:#39af78"/><path d="M193.25,219.25V226c0,3.46-2.12,5.23-5.07,5.23A4.88,4.88,0,0,1,183,226v-6.71h2.19V226c0,2.11,1.2,3.23,3,3.23s2.86-1.22,2.86-3.23v-6.71h2.19Z" transform="translate(-169.61 -158.89)" style="fill:#39af78"/><path d="M204.13,230.94h-8.76V219.23h8.76v2.14h-6.57v2.69h6.34v2.06h-6.34v2.64h6.57v2.17Z" transform="translate(-169.61 -158.89)" style="fill:#39af78"/><path d="M218.43,219.23v7.27c0,6.12-9,6.14-9,0v-7.27h0.89v7.27a3.6,3.6,0,1,0,7.19,0v-7.27h0.89Z" transform="translate(-169.61 -158.89)" style="fill:url(#New_Pattern_Swatch_2)"/><path d="M231.1,220.54l-4.48,6.86h-0.3l-4.52-6.86v10.4h-0.9V219.23H222l4.48,6.82,4.43-6.82H232v11.71H231.1v-10.4Z" transform="translate(-169.61 -158.89)" style="fill:url(#New_Pattern_Swatch_2)"/><path d="M243.87,230.94l-1.29-2.88h-7l-1.27,2.88h-1l5.25-11.71h1l5.25,11.71h-1Zm-1.64-3.71-3.14-7.12-3.14,7.12h6.29Z" transform="translate(-169.61 -158.89)" style="fill:url(#New_Pattern_Swatch_2)"/><path d="M259.42,222.43a2.57,2.57,0,0,1-1.91,2.51,3,3,0,0,1,2.31,2.94c0,2.41-2.24,3.06-4.25,3.06h-4.8V219.23h4.8C257.55,219.23,259.42,220.2,259.42,222.43Zm-7.74,2.11h4c1.4,0,2.88-.43,2.88-2.11s-1.54-2.43-3-2.43h-3.9v4.53Zm0,5.54h3.9c1.47,0,3.36-.35,3.36-2.21s-1.67-2.48-3.24-2.48h-4v4.68Z" transform="translate(-169.61 -158.89)" style="fill:url(#New_Pattern_Swatch_2)"/><path d="M262,230.94V219.23h0.89v11.71H262Z" transform="translate(-169.61 -158.89)" style="fill:url(#New_Pattern_Swatch_2)"/><path d="M273.68,230.94h-1.14l-6.17-5.77v5.75h-0.9V219.23h0.9v5.33l5.69-5.33h1.09v0.08l-5.89,5.52,6.42,6v0.07Z" transform="translate(-169.61 -158.89)" style="fill:url(#New_Pattern_Swatch_2)"/><path d="M275.75,224.63h6.86v0.82h-6.86v4.62h7.39v0.87h-8.28V219.23h8.08v0.85h-7.19v4.55Z" transform="translate(-169.61 -158.89)" style="fill:url(#New_Pattern_Swatch_2)"/><path d="M284.61,222.44c0-2.54,2.38-3.41,4.48-3.41s4.5,0.75,4.52,3.43a2.9,2.9,0,0,1-2.43,3.14c-1.74.54-2,.85-2,3h-0.85c0-2.29.57-3.14,2.64-3.75a2.12,2.12,0,0,0,1.79-2.37c0-2.19-2.06-2.63-3.66-2.63s-3.6.52-3.61,2.61h-0.87Zm4.87,7.89a0.65,0.65,0,1,1-1.3,0A0.65,0.65,0,1,1,289.48,230.34Z" transform="translate(-169.61 -158.89)" style="fill:url(#New_Pattern_Swatch_2)"/><path d="M181.05,200.89a18.17,18.17,0,0,1,34.77,0h3.48a21.52,21.52,0,0,0-41.72,0h3.48Z" transform="translate(-169.61 -158.89)" style="fill:#314866"/><path d="M252.26,189l1.21,3.32a18.2,18.2,0,0,0-5.67,8.6h-3.48A21.55,21.55,0,0,1,252.26,189Z" transform="translate(-169.61 -158.89)" style="fill:#314866"/><path d="M286,200.89h-3.48a18.19,18.19,0,0,0-23.1-12q-0.54-1.48-1.14-3.15A21.54,21.54,0,0,1,286,200.89Z" transform="translate(-169.61 -158.89)" style="fill:#314866"/><path d="M225.27,200.89h-2.16l-7.94-25.37a11.49,11.49,0,0,0,2.22.19Z" transform="translate(-169.61 -158.89)" style="fill:#39af78"/><path d="M238,200.89l16.41-17.33a1,1,0,1,0-1.5-1.42l-17.75,18.75H238Z" transform="translate(-169.61 -158.89)" style="fill:#39af78"/><rect x="220.17" y="186.93" width="35.12" height="2.06" transform="translate(-234.92 32.28) rotate(-38.94)" style="fill:#39af78"/><path d="M208.1,193.64a14.73,14.73,0,0,1,1.36,1.18l-5.51,6.07h-2.43Z" transform="translate(-169.61 -158.89)" style="fill:#39af78"/><path d="M219.08,184.23l-4.19,4.62c-0.43-.42-0.89-0.81-1.35-1.19l4.21-4.64A0.9,0.9,0,1,1,219.08,184.23Z" transform="translate(-169.61 -158.89)" style="fill:#39af78"/><path d="M208.49,170.43v1.21s8.25,2.32,9.28,1.8,8.76-3.35,8.76-3.35S225,168,223.95,168a78.69,78.69,0,0,1-12.26-.38A2.81,2.81,0,0,0,208.49,170.43Z" transform="translate(-169.61 -158.89)" style="fill:#314866"/><path d="M238.6,161.71l8.24-.75a2.38,2.38,0,0,1,2.37,3.39l-0.9,1.91a5,5,0,0,0-.21,3.77c2.74,8,8.85,25.53,11.27,30.86h2.28c-1.17-2.06-5.66-14.26-11.6-31.53a2.94,2.94,0,0,1,.12-2.22l0.9-1.91a4.44,4.44,0,0,0-4.42-6.32l-8.24.75A1,1,0,1,0,238.6,161.71Z" transform="translate(-169.61 -158.89)" style="fill:#39af78"/><path d="M192.7,205.26a3.35,3.35,0,0,0-1.73.48h0l-0.14.09a8.11,8.11,0,0,1-9.26.08l-0.26-.17h0a3.37,3.37,0,1,0,.36,5.55h0a8.09,8.09,0,0,1,9,0h0A3.37,3.37,0,1,0,192.7,205.26Zm-13.11,4.86a1.49,1.49,0,1,1,1.49-1.49A1.49,1.49,0,0,1,179.59,210.12Zm13.11,0a1.49,1.49,0,1,1,1.49-1.49A1.49,1.49,0,0,1,192.7,210.12Z" transform="translate(-169.61 -158.89)" style="fill:url(#New_Pattern_Swatch_2)"/><path d="M205.87,205.26a3.35,3.35,0,0,0-1.73.48h0l-0.14.09a8.11,8.11,0,0,1-9.26.08l-0.26-.17h0a3.37,3.37,0,1,0,.36,5.55h0a8.09,8.09,0,0,1,9,0h0A3.37,3.37,0,1,0,205.87,205.26Zm-13.11,4.86a1.49,1.49,0,1,1,1.49-1.49A1.49,1.49,0,0,1,192.76,210.12Zm13.11,0a1.49,1.49,0,1,1,1.49-1.49A1.49,1.49,0,0,1,205.87,210.12Z" transform="translate(-169.61 -158.89)" style="fill:url(#New_Pattern_Swatch_2)"/><path d="M219,205.26a3.35,3.35,0,0,0-1.73.48h0l-0.14.09a8.11,8.11,0,0,1-9.26.08l-0.26-.17h0a3.37,3.37,0,1,0,.36,5.55h0a8.09,8.09,0,0,1,9,0h0A3.37,3.37,0,1,0,219,205.26Zm-13.11,4.86a1.49,1.49,0,1,1,1.49-1.49A1.49,1.49,0,0,1,205.93,210.12Zm13.11,0a1.49,1.49,0,1,1,1.49-1.49A1.49,1.49,0,0,1,219,210.12Z" transform="translate(-169.61 -158.89)" style="fill:url(#New_Pattern_Swatch_2)"/><path d="M232.21,205.26a3.35,3.35,0,0,0-1.73.48h0l-0.14.09a8.11,8.11,0,0,1-9.26.08l-0.26-.17h0a3.37,3.37,0,1,0,.36,5.55h0a8.09,8.09,0,0,1,9,0h0A3.37,3.37,0,1,0,232.21,205.26Zm-13.11,4.86a1.49,1.49,0,1,1,1.49-1.49A1.49,1.49,0,0,1,219.1,210.12Zm13.11,0a1.49,1.49,0,1,1,1.49-1.49A1.49,1.49,0,0,1,232.21,210.12Z" transform="translate(-169.61 -158.89)" style="fill:url(#New_Pattern_Swatch_2)"/><path d="M245.36,205.26a3.35,3.35,0,0,0-1.73.48h0l-0.14.09a8.11,8.11,0,0,1-9.26.08l-0.26-.17h0a3.37,3.37,0,1,0,.36,5.55h0a8.09,8.09,0,0,1,9,0h0A3.37,3.37,0,1,0,245.36,205.26Zm-13.11,4.86a1.49,1.49,0,1,1,1.49-1.49A1.49,1.49,0,0,1,232.26,210.12Zm13.11,0a1.49,1.49,0,1,1,1.49-1.49A1.49,1.49,0,0,1,245.36,210.12Z" transform="translate(-169.61 -158.89)" style="fill:url(#New_Pattern_Swatch_2)"/><path d="M258.53,205.26a3.35,3.35,0,0,0-1.73.48h0l-0.14.09a8.11,8.11,0,0,1-9.26.08l-0.26-.17h0a3.37,3.37,0,1,0,.36,5.55h0a8.09,8.09,0,0,1,9,0h0A3.37,3.37,0,1,0,258.53,205.26Zm-13.11,4.86a1.49,1.49,0,1,1,1.49-1.49A1.49,1.49,0,0,1,245.43,210.12Zm13.11,0a1.49,1.49,0,1,1,1.49-1.49A1.49,1.49,0,0,1,258.53,210.12Z" transform="translate(-169.61 -158.89)" style="fill:url(#New_Pattern_Swatch_2)"/><path d="M271.7,205.26a3.35,3.35,0,0,0-1.73.48h0l-0.14.09a8.11,8.11,0,0,1-9.26.08l-0.26-.17h0a3.37,3.37,0,1,0,.36,5.55h0a8.09,8.09,0,0,1,9,0h0A3.37,3.37,0,1,0,271.7,205.26Zm-13.11,4.86a1.49,1.49,0,1,1,1.49-1.49A1.49,1.49,0,0,1,258.6,210.12Zm13.11,0a1.49,1.49,0,1,1,1.49-1.49A1.49,1.49,0,0,1,271.7,210.12Z" transform="translate(-169.61 -158.89)" style="fill:url(#New_Pattern_Swatch_2)"/><path d="M284.87,205.26a3.35,3.35,0,0,0-1.73.48h0l-0.14.09a8.11,8.11,0,0,1-9.26.08l-0.26-.17h0a3.37,3.37,0,1,0,.36,5.55h0a8.09,8.09,0,0,1,9,0h0A3.37,3.37,0,1,0,284.87,205.26Zm-13.11,4.86a1.49,1.49,0,1,1,1.49-1.49A1.49,1.49,0,0,1,271.77,210.12Zm13.11,0a1.49,1.49,0,1,1,1.49-1.49A1.49,1.49,0,0,1,284.87,210.12Z" transform="translate(-169.61 -158.89)" style="fill:url(#New_Pattern_Swatch_2)"/></svg>